<svg height="128" viewBox="0 0 128 128" width="128" xmlns="http://www.w3.org/2000/svg"><path d="m84.333 56.452h21v52.548h-21z" fill="#f9d16e"/><path d="m44.706 37.667h39.627v71.333h-39.627z" fill="#ffad5a"/><path d="m52.557 86.5h11.963v22.5h-11.963z" fill="#fff8e3"/><path d="m64.52 86.5h11.963v22.5h-11.963z" fill="#fff8e3"/><path d="m91.648 79.541h6.37v6.37h-6.37z" fill="#fff8e3"/><path d="m91.648 64.631h6.37v6.37h-6.37z" fill="#fff8e3"/><path d="m91.648 94.451h6.37v6.37h-6.37z" fill="#fff8e3"/><path d="m84.333 49.153h23.16a.167.167 0 0 1 .167.167v7.133a0 0 0 0 1 0 0h-23.327a0 0 0 0 1 0 0v-7.3a0 0 0 0 1 0 0z" fill="#f7963e"/><path d="m23.706 56.452h21v52.548h-21z" fill="#f9d16e" transform="matrix(-1 0 0 -1 68.412 165.452)"/><path d="m31.021 79.541h6.37v6.37h-6.37z" fill="#fff8e3" transform="matrix(-1 0 0 -1 68.412 165.452)"/><path d="m31.021 64.631h6.37v6.37h-6.37z" fill="#fff8e3" transform="matrix(-1 0 0 -1 68.412 135.632)"/><path d="m31.021 94.451h6.37v6.37h-6.37z" fill="#fff8e3" transform="matrix(-1 0 0 -1 68.412 195.272)"/><path d="m21.38 49.153h23.326a0 0 0 0 1 0 0v7.133a.167.167 0 0 1 -.167.167h-23.159a0 0 0 0 1 0 0v-7.3a0 0 0 0 1 0 0z" fill="#f7963e" transform="matrix(-1 0 0 -1 66.086 105.605)"/><g fill="#fff8e3"><path d="m53.363 58.594h6.37v6.37h-6.37z"/><path d="m69.307 58.594h6.37v6.37h-6.37z"/><path d="m53.363 45.783h6.37v6.37h-6.37z"/><path d="m69.307 45.783h6.37v6.37h-6.37z"/><path d="m53.363 71.405h6.37v6.37h-6.37z"/><path d="m69.307 71.405h6.37v6.37h-6.37z"/></g><rect fill="#4f9da6" height="13.5" rx="2.835" width="44.536" x="42.252" y="19"/><path d="m52.568 22.31v6.88h-1.712v-2.744h-2.815v2.744h-1.712v-6.88h1.712v2.6h2.815v-2.6z" fill="#fff8e3"/><path d="m54.3 25.745a3.7 3.7 0 1 1 3.7 3.565 3.672 3.672 0 0 1 -3.7-3.565zm5.638 0a1.944 1.944 0 1 0 -1.943 2.013 2 2 0 0 0 1.938-2.013z" fill="#fff8e3"/><path d="m65.126 23.842h-2.092v-1.532h5.888v1.532h-2.083v5.348h-1.713z" fill="#fff8e3"/><path d="m72.251 23.842v1.072h3.366v1.532h-3.366v1.212h3.706v1.532h-5.418v-6.88h5.418v1.532z" fill="#fff8e3"/><path d="m82.711 27.658v1.532h-5.018v-6.88h1.7v5.348z" fill="#fff8e3"/><path d="m52.562 39.167a1.5 1.5 0 0 1 -1.5-1.5v-5.167a1.5 1.5 0 0 1 3 0v5.167a1.5 1.5 0 0 1 -1.5 1.5z" fill="#4f9da6"/><path d="m76.477 39.167a1.5 1.5 0 0 1 -1.5-1.5v-5.167a1.5 1.5 0 0 1 3 0v5.167a1.5 1.5 0 0 1 -1.5 1.5z" fill="#4f9da6"/><path d="m109 110.75h-90a1.75 1.75 0 0 1 0-3.5h90a1.75 1.75 0 0 1 0 3.5z" fill="#2d1f5e"/></svg>